<svg id="wave" style="transform:rotate(0deg); transition: 0.3s" viewBox="0 0 1440 490" version="1.1" xmlns="http://www.w3.org/2000/svg"><defs><linearGradient id="sw-gradient-0" x1="0" x2="0" y1="1" y2="0"><stop stop-color="rgba(59, 130, 246, 1)" offset="0%"></stop><stop stop-color="rgba(59, 130, 246, 1)" offset="100%"></stop></linearGradient></defs><path style="transform:translate(0, 0px); opacity:1" fill="url(#sw-gradient-0)" d="M0,245L48,245C96,245,192,245,288,277.7C384,310,480,376,576,343C672,310,768,180,864,171.5C960,163,1056,278,1152,294C1248,310,1344,229,1440,196C1536,163,1632,180,1728,212.3C1824,245,1920,294,2016,302.2C2112,310,2208,278,2304,285.8C2400,294,2496,343,2592,310.3C2688,278,2784,163,2880,114.3C2976,65,3072,82,3168,89.8C3264,98,3360,98,3456,81.7C3552,65,3648,33,3744,65.3C3840,98,3936,196,4032,228.7C4128,261,4224,229,4320,196C4416,163,4512,131,4608,98C4704,65,4800,33,4896,49C4992,65,5088,131,5184,138.8C5280,147,5376,98,5472,81.7C5568,65,5664,82,5760,147C5856,212,5952,327,6048,359.3C6144,392,6240,343,6336,310.3C6432,278,6528,261,6624,261.3C6720,261,6816,278,6864,285.8L6912,294L6912,490L6864,490C6816,490,6720,490,6624,490C6528,490,6432,490,6336,490C6240,490,6144,490,6048,490C5952,490,5856,490,5760,490C5664,490,5568,490,5472,490C5376,490,5280,490,5184,490C5088,490,4992,490,4896,490C4800,490,4704,490,4608,490C4512,490,4416,490,4320,490C4224,490,4128,490,4032,490C3936,490,3840,490,3744,490C3648,490,3552,490,3456,490C3360,490,3264,490,3168,490C3072,490,2976,490,2880,490C2784,490,2688,490,2592,490C2496,490,2400,490,2304,490C2208,490,2112,490,2016,490C1920,490,1824,490,1728,490C1632,490,1536,490,1440,490C1344,490,1248,490,1152,490C1056,490,960,490,864,490C768,490,672,490,576,490C480,490,384,490,288,490C192,490,96,490,48,490L0,490Z"></path></svg>